<?xml version="1.0" encoding="UTF-8" standalone="no"?>
<!DOCTYPE svg  PUBLIC '-//W3C//DTD SVG 1.1//EN'  'http://www.w3.org/Graphics/SVG/1.1/DTD/svg11.dtd'>
<svg xmlns="http://www.w3.org/2000/svg">
<defs>
<font id="GothamHTF-Medium" horiz-adv-x="670">
<font-face underline-position="-123" font-weight="500" descent="-200" panose-1="0 0 0 0 0 0 0 0 0 0" units-per-em="1000" unicode-range="U+0020-2248" bbox="-70 -165 1180 922" x-height="528" underline-thickness="20" font-family="Gotham HTF Medium" ascent="800" cap-height="700"/>
<missing-glyph horiz-adv-x="1000"/>
<glyph glyph-name=".notdef" horiz-adv-x="1000"/>
<glyph glyph-name=".null" horiz-adv-x="0"/>
<glyph glyph-name="nonmarkingreturn" horiz-adv-x="333"/>
<glyph glyph-name="space" horiz-adv-x="300" unicode=" "/>
<glyph glyph-name="exclam" horiz-adv-x="302" unicode="!" d="M218 0h-133v137h133v-137zM80 700h142v-35l-37 -444h-67l-38 444v35z"/>
<glyph glyph-name="quotedbl" horiz-adv-x="487" unicode='&quot;' d="M60 401l23 299h137v-5l-97 -294h-63zM279 401l24 299h137v-5l-98 -294h-63z"/>
<glyph glyph-name="numbersign" horiz-adv-x="700" unicode="#" d="M447 439h-164l-30 -174h164zM660 439h-107l-29 -174h100v-104h-118l-28 -161h-107l28 161h-164l-27 -161h-107l28 161h-90v104h108l29 174h-100v104h118l27 157h107l-27 -157h164l26 157h107l-27 -157h89v-104z"/>
<glyph glyph-name="dollar" horiz-adv-x="642" unicode="$" d="M467 188q0 35 -21 56.5t-78 38.5v-181q47 4 73 27t26 59zM289 423v176q-46 -4 -71 -27t-25 -57q0 -33 20.5 -54t75.5 -38zM585 195q0 -82 -58.5 -134t-154.5 -60v-99h-87v100q-130 15 -236 99l64 91q90 -73 176 -86v196q-112 29 -163 76t-51 130q0 80 57.5 132t152.5 60 v58h87v-60q103 -13 188 -76l-56 -94q-65 49 -136 64v-190q114 -29 165.5 -77.5t51.5 -129.5z"/>
<glyph glyph-name="percent" horiz-adv-x="849" unicode="%" d="M712 170q0 44 -22 73.5t-55 29.5q-34 0 -54.5 -29t-20.5 -72q0 -44 22 -73.5t55 -29.5q34 0 54.5 29t20.5 72zM289 528q0 44 -22 73.5t-55 29.5q-34 0 -54.5 -29t-20.5 -72q0 -44 22 -73.5t55 -29.5q34 0 54.5 29t20.5 72zM801 172q0 -75 -46.5 -127.5t-119.5 -52.5 q-72 0 -118 52t-46 126q0 75 46.5 127.5t119.5 52.5q72 0 118 -52t46 -126zM730 700l-512 -700h-99l512 700h99zM378 530q0 -75 -46.5 -127.5t-119.5 -52.5q-72 0 -118 52t-46 126q0 75 46.5 127.5t119.5 52.5q72 0 118 -52t46 -126z"/>
<glyph glyph-name="ampersand" horiz-adv-x="696" unicode="&amp;" d="M412 153l-156 159q-93 -40 -93 -117q0 -45 33 -74t84 -29q68 0 132 61zM408 535q0 36 -22 58t-58 22q-37 0 -60 -23.5t-23 -61.5q0 -47 53 -105q56 20 83 46t27 64zM666 51l-91 -65l-93 95q-98 -91 -215 -91q-99 0 -163.5 55t-64.5 146q0 133 149 197q-58 75 -58 147 q0 74 55 125.5t146 51.5q82 0 134 -48.5t52 -121.5q0 -125 -154 -183l120 -122q38 57 75 135l93 -49q-48 -96 -95 -160z"/>
<glyph glyph-name="quotesingle" horiz-adv-x="269" unicode="&apos;" d="M60 401l23 299h139v-5l-98 -294h-64z"/>
<glyph glyph-name="parenleft" horiz-adv-x="440" unicode="(" d="M393 634q-108 -71 -158.5 -154t-50.5 -193t50.5 -193t158.5 -154l-53 -81q-277 152 -277 428t277 428z"/>
<glyph glyph-name="parenright" horiz-adv-x="440" unicode=")" d="M48 634l53 81q277 -153 277 -428t-277 -428l-53 81q108 71 158.5 154t50.5 193t-50.5 193t-158.5 154z"/>
<glyph glyph-name="asterisk" horiz-adv-x="430" unicode="*" d="M372 492l-36 -61l-100 73l14 -122h-70l14 122l-100 -73l-36 61l114 50l-114 50l36 61l100 -73l-14 122h70l-14 -122l100 73l36 -61l-114 -50z"/>
<glyph glyph-name="plus" horiz-adv-x="640" unicode="+" d="M263 407v191h114v-191h192v-110h-192v-191h-114v191h-192v110h192z"/>
<glyph glyph-name="comma" horiz-adv-x="269" unicode="," d="M34 -94q86 17 86 83q0 2 -0.5 5.5t-0.5 5.5h-51v137h133v-116q0 -81 -38 -120.5t-116 -45.5z"/>
<glyph glyph-name="hyphen" horiz-adv-x="408" unicode="-" d="M352 247h-296v119h296v-119z"/>
<glyph glyph-name="period" horiz-adv-x="269" unicode="." d="M201 0h-133v137h133v-137z"/>
<glyph glyph-name="slash" horiz-adv-x="521" unicode="/" d="M427 798h105l-452 -926h-105z"/>
<glyph glyph-name="zero" horiz-adv-x="724" unicode="0" d="M540 349q0 107 -49.5 179.5t-129.5 72.5t-128.5 -71t-48.5 -179q0 -107 49.5 -179.5t129.5 -72.5t128.5 71.5t48.5 178.5zM667 351q0 -154 -85.5 -258.5t-220.5 -104.5t-219.5 103.5t-84.5 257.5t85.5 258.5t220.5 104.5t219.5 -103.5t84.5 -257.5z"/>
<glyph glyph-name="one" horiz-adv-x="396" unicode="1" d="M26 645l188 60h86v-705h-122v580l-126 -35z"/>
<glyph glyph-name="two" horiz-adv-x="613" unicode="2" d="M308 600q-46 0 -82.5 -25t-79.5 -80l-87 68q54 76 111.5 111.5t146.5 35.5q105 0 168 -58t63 -152q0 -78 -40 -133.5t-142 -138.5l-144 -120h333v-108h-506v97l241 205q74 62 102.5 102.5t28.5 86.5q0 50 -32 79.5t-81 29.5z"/>
<glyph glyph-name="three" horiz-adv-x="618" unicode="3" d="M385 593h-303v107h463v-92l-195 -200q91 -12 148.5 -59.5t57.5 -138.5q0 -98 -68.5 -160t-176.5 -62q-167 0 -268 123l86 80q78 -92 184 -92q53 0 87 29.5t34 77.5q0 52 -43 80.5t-118 28.5h-57l-20 77z"/>
<glyph glyph-name="four" horiz-adv-x="681" unicode="4" d="M412 258v277l-230 -277h230zM425 705h105v-447h100v-101h-100v-157h-118v157h-353l-23 88z"/>
<glyph glyph-name="five" horiz-adv-x="622" unicode="5" d="M94 357l20 343h418v-109h-312l-11 -164q55 20 111 20q108 0 175.5 -56.5t67.5 -164.5t-71 -173t-188 -65q-147 0 -257 107l76 89q90 -84 180 -84q63 0 101 33.5t38 88.5q0 54 -39.5 85.5t-105.5 31.5q-63 0 -129 -31z"/>
<glyph glyph-name="six" horiz-adv-x="656" unicode="6" d="M474 222q0 54 -39.5 88.5t-103.5 34.5t-103 -36t-39 -88q0 -55 40 -91t105 -36q64 0 102 36t38 92zM571 634l-66 -95q-79 61 -152 61q-76 0 -119.5 -61.5t-48.5 -160.5q72 70 167 70q106 0 175.5 -59t69.5 -162q0 -105 -74.5 -172t-185.5 -67q-120 0 -195 73 q-42 43 -63.5 105.5t-21.5 163.5q0 168 78.5 275t221.5 107q117 0 214 -78z"/>
<glyph glyph-name="seven" horiz-adv-x="609" unicode="7" d="M68 592v108h492v-93l-316 -607h-138l314 592h-352z"/>
<glyph glyph-name="eight" horiz-adv-x="630" unicode="8" d="M462 199q0 48 -42 77.5t-105 29.5t-105 -29.5t-42 -77.5q0 -46 40 -76t107 -30t107 30t40 76zM440 508q0 42 -35 70.5t-90 28.5t-90 -28.5t-35 -69.5q0 -46 35.5 -75.5t89.5 -29.5t89.5 29t35.5 75zM582 194q0 -93 -75 -148.5t-192 -55.5q-116 0 -191.5 55.5t-75.5 145.5 q0 119 126 172q-102 54 -102 157q0 81 69 135.5t174 54.5t174 -54.5t69 -135.5q0 -103 -102 -157q126 -58 126 -169z"/>
<glyph glyph-name="nine" horiz-adv-x="656" unicode="9" d="M467 476q0 56 -40 93t-106 37q-64 0 -101.5 -37.5t-37.5 -93.5t39 -91t104 -35t103.5 36.5t38.5 90.5zM599 370q0 -172 -80.5 -277t-219.5 -105q-123 0 -224 84l67 94q78 -66 160 -66q76 0 121 60.5t48 159.5q-62 -74 -164 -74q-112 0 -180 60.5t-68 162.5q0 105 73 174 t188 69q120 0 194 -74q85 -85 85 -268z"/>
<glyph glyph-name="colon" horiz-adv-x="279" unicode=":" d="M206 0h-133v137h133v-137zM206 391h-133v137h133v-137z"/>
<glyph glyph-name="semicolon" horiz-adv-x="279" unicode=";" d="M39 -94q86 17 86 83q0 2 -0.5 5.5t-0.5 5.5h-51v137h133v-116q0 -81 -38 -120.5t-116 -45.5zM206 391h-133v137h133v-137z"/>
<glyph glyph-name="less" horiz-adv-x="640" unicode="&lt;" d="M70 406l477 221v-115l-357 -159l357 -160v-116l-477 221v108z"/>
<glyph glyph-name="equal" horiz-adv-x="640" unicode="=" d="M86 283h468v-112h-468v112zM86 533h468v-112h-468v112z"/>
<glyph glyph-name="greater" horiz-adv-x="640" unicode="&gt;" d="M570 298l-477 -221v115l357 159l-357 160v116l477 -221v-108z"/>
<glyph glyph-name="question" horiz-adv-x="541" unicode="?" d="M312 0h-134v137h134v-137zM192 388q185 7 185 113q0 43 -31 69.5t-84 26.5q-89 0 -163 -79l-75 80q98 111 241 111q106 0 170 -55t64 -149q0 -89 -55 -138t-146 -65l-10 -81h-81l-20 162z"/>
<glyph glyph-name="at" horiz-adv-x="980" unicode="@" d="M595 312q0 48 -30 78t-75 30q-56 0 -97.5 -46t-41.5 -112q0 -51 29 -79.5t77 -28.5q55 0 96.5 46.5t41.5 111.5zM927 316q0 -120 -55.5 -184.5t-138.5 -64.5q-104 0 -148 70q-68 -70 -155 -70q-77 0 -129 52.5t-52 136.5q0 104 69 177t158 73q93 0 141 -74l12 60l97 -15 l-44 -252q-5 -30 -5 -43q0 -33 21 -52t57 -19q56 0 94 53.5t38 151.5q0 142 -115 250t-281 108q-169 0 -283.5 -116.5t-114.5 -283.5q0 -168 115 -283t291 -115q131 0 247 67l18 -30q-123 -75 -265 -75q-190 0 -318 127.5t-128 308.5q0 180 127.5 309t310.5 129 q90 0 171.5 -33t139 -87.5t91.5 -126.5t34 -149z"/>
<glyph glyph-name="A" horiz-adv-x="790" unicode="A" d="M514 278l-121 280l-120 -280h241zM452 705l308 -705h-130l-71 169h-331l-72 -169h-126l308 705h114z"/>
<glyph glyph-name="B" horiz-adv-x="722" unicode="B" d="M415 109q64 0 99.5 25t35.5 72q0 95 -144 95h-195v-192h204zM379 405q61 0 96.5 24.5t35.5 71.5q0 43 -32 66.5t-91 23.5h-177v-186h168zM404 700q106 0 168 -48.5t62 -130.5q0 -105 -100 -157q139 -47 139 -171q0 -93 -70 -143t-189 -50h-324v700h314z"/>
<glyph glyph-name="C" horiz-adv-x="738" unicode="C" d="M699 112q-59 -62 -125 -93t-159 -31q-152 0 -254 104.5t-102 256.5t102 257.5t259 105.5q91 0 154.5 -28t119.5 -81l-79 -91q-94 87 -196 87q-100 0 -165.5 -71.5t-65.5 -176.5t66 -177.5t165 -72.5q60 0 106 22.5t95 68.5z"/>
<glyph glyph-name="D" horiz-adv-x="782" unicode="D" d="M594 349q0 105 -67 172t-176 67h-138v-476h138q109 0 176 66.5t67 170.5zM723 351q0 -150 -104.5 -250.5t-267.5 -100.5h-261v700h261q163 0 267.5 -99.5t104.5 -249.5z"/>
<glyph glyph-name="E" d="M609 700v-110h-396v-182h351v-110h-351v-188h401v-110h-524v700h519z" unicode="E"/>
<glyph glyph-name="F" horiz-adv-x="656" unicode="F" d="M611 700v-112h-398v-191h353v-112h-353v-285h-123v700h521z"/>
<glyph glyph-name="G" horiz-adv-x="784" unicode="G" d="M714 97q-127 -109 -292 -109q-162 0 -262.5 102.5t-100.5 258.5q0 150 102.5 256.5t258.5 106.5q88 0 150 -23.5t119 -71.5l-78 -93q-44 38 -88.5 56.5t-107.5 18.5q-96 0 -161.5 -72.5t-65.5 -175.5q0 -110 66 -180.5t172 -70.5q98 0 169 53v131h-179v107h298v-294z"/>
<glyph glyph-name="H" horiz-adv-x="760" unicode="H" d="M547 295h-334v-295h-123v700h123v-291h334v291h123v-700h-123v295z"/>
<glyph glyph-name="I" horiz-adv-x="317" unicode="I" d="M97 700h123v-700h-123v700z"/>
<glyph glyph-name="J" horiz-adv-x="559" unicode="J" d="M480 238q0 -121 -64 -184.5t-171 -63.5q-141 0 -224 113l81 83q65 -82 141 -82q51 0 81 34.5t30 102.5v459h126v-462z"/>
<glyph glyph-name="K" horiz-adv-x="725" unicode="K" d="M406 399l304 -399h-149l-239 315l-109 -112v-203h-123v700h123v-352l333 352h151z"/>
<glyph glyph-name="L" horiz-adv-x="619" unicode="L" d="M90 0v700h123v-588h368v-112h-491z"/>
<glyph glyph-name="M" horiz-adv-x="868" unicode="M" d="M655 502l-221 -330h-4l-219 328v-500h-121v700h131l213 -331l213 331h131v-700h-123v502z"/>
<glyph glyph-name="N" horiz-adv-x="790" unicode="N" d="M579 216v484h121v-700h-103l-386 498v-498h-121v700h114z"/>
<glyph glyph-name="O" horiz-adv-x="850" unicode="O" d="M662 349q0 104 -67.5 177t-170.5 73t-169.5 -72t-66.5 -176t67.5 -177t170.5 -73t169.5 72t66.5 176zM791 351q0 -151 -104 -257t-263 -106t-262 105t-103 256t104 257t263 106t262 -105t103 -256z"/>
<glyph glyph-name="P" horiz-adv-x="668" unicode="P" d="M507 462q0 61 -40.5 93.5t-110.5 32.5h-143v-252h143q69 0 110 34.5t41 91.5zM632 465q0 -114 -79.5 -177t-200.5 -63h-139v-225h-123v700h276q122 0 194 -64t72 -171z"/>
<glyph glyph-name="Q" horiz-adv-x="850" unicode="Q" d="M546 135l-120 102l79 90l121 -110q36 55 36 132q0 104 -67.5 177t-170.5 73t-169.5 -72t-66.5 -176t67.5 -177t170.5 -73q67 0 120 34zM720 135l80 -68l-79 -88l-84 75q-95 -66 -213 -66q-159 0 -262 105t-103 256t104 257t263 106t262 -105t103 -256q0 -120 -71 -216z "/>
<glyph glyph-name="R" horiz-adv-x="723" unicode="R" d="M537 471q0 57 -38 87t-107 30h-179v-235h180q66 0 105 32t39 86zM684 0h-145l-172 244h-154v-244h-123v700h312q121 0 190.5 -59.5t69.5 -162.5q0 -84 -45 -138t-122 -75z"/>
<glyph glyph-name="S" horiz-adv-x="640" unicode="S" d="M194 517q0 -42 33.5 -64.5t132.5 -46.5q116 -28 170.5 -75t54.5 -131q0 -97 -69 -153.5t-181 -56.5q-167 0 -292 112l74 88q105 -91 221 -91q57 0 90.5 24t33.5 65q0 40 -32 63t-126 45q-122 30 -177.5 74t-55.5 136q0 91 67 147.5t172 56.5q144 0 254 -88l-66 -93 q-97 72 -190 72q-53 0 -83.5 -24t-30.5 -60z"/>
<glyph glyph-name="T" horiz-adv-x="648" unicode="T" d="M386 586v-586h-124v586h-222v114h568v-114h-222z"/>
<glyph glyph-name="U" horiz-adv-x="757" unicode="U" d="M678 700v-397q0 -153 -80 -233.5t-221 -80.5q-139 0 -218.5 79t-79.5 229v403h123v-398q0 -96 47 -148t130 -52t129.5 50t46.5 145v403h123z"/>
<glyph glyph-name="V" horiz-adv-x="750" unicode="V" d="M377 162l210 538h133l-291 -705h-108l-291 705h136z"/>
<glyph glyph-name="W" horiz-adv-x="1116" unicode="W" d="M336 181l172 521h104l172 -521l167 519h129l-244 -705h-106l-172 503l-172 -503h-106l-244 705h133z"/>
<glyph glyph-name="X" horiz-adv-x="729" unicode="X" d="M692 0h-145l-184 265l-185 -265h-141l255 356l-245 344h145l174 -251l175 251h141l-244 -342z"/>
<glyph glyph-name="Y" horiz-adv-x="716" unicode="Y" d="M420 279v-279h-124v276l-278 424h145l196 -310l198 310h141z"/>
<glyph glyph-name="Z" horiz-adv-x="702" unicode="Z" d="M478 591h-400v109h560v-91l-413 -500h413v-109h-573v91z"/>
<glyph glyph-name="bracketleft" horiz-adv-x="454" unicode="[" d="M395 700v-95h-192v-640h192v-95h-307v830h307z"/>
<glyph glyph-name="backslash" horiz-adv-x="521" unicode="\" d="M94 798l452 -926h-105l-452 926h105z"/>
<glyph glyph-name="bracketright" horiz-adv-x="454" unicode="]" d="M59 700h308v-830h-308v95h192v640h-192v95z"/>
<glyph glyph-name="asciicircum" horiz-adv-x="500" unicode="^" d="M249 625l-102 -132h-91l151 208h86l151 -208h-93z"/>
<glyph glyph-name="underscore" horiz-adv-x="600" unicode="_" d="M-2 -66h604v-94h-604v94z"/>
<glyph glyph-name="grave" horiz-adv-x="500" unicode="`" d="M246 595l-122 115l110 49l106 -164h-94z"/>
<glyph glyph-name="a" horiz-adv-x="587" unicode="a" d="M402 191v33q-54 21 -121 21q-57 0 -89 -22.5t-32 -62.5v-2q0 -36 29 -57t73 -21q61 0 100.5 31t39.5 80zM519 0h-120v65q-64 -76 -171 -76q-79 0 -133.5 43.5t-54.5 119.5v2q0 83 59 126.5t155 43.5q77 0 146 -22v13q0 55 -33.5 84t-96.5 29q-72 0 -151 -33l-33 97 q98 44 201 44q115 0 173.5 -58t58.5 -165v-313z"/>
<glyph glyph-name="b" d="M499 264q0 76 -44 123t-107 47q-64 0 -109 -47.5t-45 -122.5t45 -122.5t109 -47.5t107.5 46.5t43.5 123.5zM622 264q0 -126 -73 -200.5t-173 -74.5q-109 0 -179 93v-82h-121v730h121v-290q70 99 179 99q100 0 173 -74.5t73 -200.5z" unicode="b"/>
<glyph glyph-name="c" horiz-adv-x="571" unicode="c" d="M536 87q-43 -48 -93.5 -73.5t-122.5 -25.5q-117 0 -195 80t-78 194q0 115 78.5 196t195.5 81q128 0 211 -91l-75 -81q-63 66 -137 66q-65 0 -108.5 -49t-43.5 -120q0 -72 44.5 -121.5t113.5 -49.5q73 0 137 66z"/>
<glyph glyph-name="d" d="M476 264q0 75 -45 122.5t-108 47.5q-64 0 -108 -46.5t-44 -123.5q0 -76 44.5 -123t107.5 -47t108 47.5t45 122.5zM595 0h-121v88q-70 -99 -180 -99q-99 0 -172 74.5t-73 200.5t72.5 200.5t172.5 74.5q108 0 180 -93v284h121v-730z" unicode="d"/>
<glyph glyph-name="e" horiz-adv-x="604" unicode="e" d="M167 301h271q-6 61 -41 100t-93 39q-55 0 -92 -38.5t-45 -100.5zM168 221q10 -63 51 -98.5t101 -35.5q78 0 143 63l71 -63q-82 -99 -216 -99q-116 0 -193.5 77t-77.5 198q0 116 73 196t185 80q121 0 187 -81.5t66 -203.5q0 -9 -2 -33h-388z"/>
<glyph glyph-name="f" horiz-adv-x="376" unicode="f" d="M222 524h140v-100h-138v-424h-121v424h-67v101h67v38q0 173 162 173q51 0 98 -14v-102q-39 13 -71 13q-70 0 -70 -80v-29z"/>
<glyph glyph-name="g" d="M476 290q0 65 -45 106t-110 41q-64 0 -107 -40.5t-43 -105.5t43.5 -106t106.5 -41q64 0 109.5 41t45.5 105zM595 108q0 -270 -284 -270q-132 0 -236 63l45 91q90 -56 188 -56q81 0 124 41.5t43 120.5v41q-75 -97 -186 -97q-98 0 -169 67.5t-71 180.5t71.5 181t168.5 68 q110 0 185 -90v79h121v-420z" unicode="g"/>
<glyph glyph-name="h" horiz-adv-x="620" unicode="h" d="M197 298v-298h-121v730h121v-284q63 93 165 93q88 0 138 -55t50 -148v-336h-121v300q0 62 -29.5 95.5t-83.5 33.5q-53 0 -86 -35t-33 -96z"/>
<glyph glyph-name="i" horiz-adv-x="286" unicode="i" d="M204 0h-121v528h121v-528zM208 609h-130v115h130v-115z"/>
<glyph glyph-name="j" horiz-adv-x="286" unicode="j" d="M83 528h121v-535q0 -156 -154 -156q-26 0 -58 5v97q18 -3 34 -3q57 0 57 64v528zM208 609h-130v115h130v-115z"/>
<glyph glyph-name="k" horiz-adv-x="582" unicode="k" d="M353 313l217 -313h-140l-159 228l-74 -77v-151h-121v730h121v-436l219 234h147z"/>
<glyph glyph-name="l" horiz-adv-x="286" unicode="l" d="M204 0h-121v730h121v-730z"/>
<glyph glyph-name="m" horiz-adv-x="950" unicode="m" d="M515 446q71 93 179 93q87 0 136 -53t49 -149v-337h-121v300q0 63 -28 96t-79 33t-82 -34.5t-31 -96.5v-298h-121v301q0 61 -28 94.5t-79 33.5t-82 -35.5t-31 -96.5v-297h-121v528h121v-80q66 91 161 91q110 0 157 -93z"/>
<glyph glyph-name="n" horiz-adv-x="620" unicode="n" d="M197 298v-298h-121v528h121v-82q63 93 165 93q88 0 138 -55t50 -148v-336h-121v300q0 62 -29.5 95.5t-83.5 33.5q-53 0 -86 -35t-33 -96z"/>
<glyph glyph-name="o" horiz-adv-x="657" unicode="o" d="M489 262q0 72 -46 121.5t-116 49.5q-71 0 -115 -48.5t-44 -120.5t45.5 -121.5t115.5 -49.5q72 0 116 48.5t44 120.5zM610 264q0 -115 -81 -195.5t-202 -80.5q-120 0 -200 80t-80 194q0 115 81 196t201 81t200.5 -80t80.5 -195z"/>
<glyph glyph-name="p" d="M499 264q0 76 -44 123t-107 47q-64 0 -109 -47.5t-45 -122.5t45 -122.5t109 -47.5t107.5 46.5t43.5 123.5zM622 264q0 -126 -73 -200.5t-173 -74.5q-109 0 -179 93v-242h-121v688h121v-88q70 99 179 99q100 0 173 -74.5t73 -200.5z" unicode="p"/>
<glyph glyph-name="q" d="M476 264q0 75 -45 122.5t-108 47.5q-64 0 -108 -46.5t-44 -123.5q0 -76 44.5 -123t107.5 -47t108 47.5t45 122.5zM595 -160h-121v248q-70 -99 -180 -99q-99 0 -172 74.5t-73 200.5t72.5 200.5t172.5 74.5q108 0 180 -93v82h121v-688z" unicode="q"/>
<glyph glyph-name="r" horiz-adv-x="413" unicode="r" d="M197 201v-201h-121v528h121v-119q54 129 177 129h10v-128h-7q-82 0 -131 -53.5t-49 -155.5z"/>
<glyph glyph-name="s" horiz-adv-x="500" unicode="s" d="M453 156q0 -80 -55 -123t-141 -43q-124 0 -224 79l54 82q86 -65 173 -65q39 0 60.5 15.5t21.5 41.5v2q0 38 -106 70q-8 3 -12 4q-36 10 -60 20t-51 27.5t-40.5 44.5t-13.5 63v2q0 73 53.5 117t134.5 44q103 0 194 -60l-48 -86q-82 50 -149 50q-35 0 -54.5 -14.5 t-19.5 -38.5v-2q0 -24 26.5 -38.5t82.5 -32.5q7 -2 10 -3q35 -11 59 -21.5t50.5 -28.5t40.5 -44t14 -60v-2z"/>
<glyph glyph-name="t" horiz-adv-x="410" unicode="t" d="M222 424v-259q0 -66 65 -66q39 0 75 18v-99q-48 -27 -109 -27q-152 0 -152 155v278h-67v104h67v145h121v-145h142v-104h-142z"/>
<glyph glyph-name="u" horiz-adv-x="620" unicode="u" d="M423 230v298h121v-528h-121v82q-63 -93 -165 -93q-88 0 -138 55t-50 148v336h121v-300q0 -62 29.5 -95.5t83.5 -33.5q53 0 86 35t33 96z"/>
<glyph glyph-name="v" horiz-adv-x="595" unicode="v" d="M298 140l143 388h127l-216 -532h-109l-217 532h130z"/>
<glyph glyph-name="w" horiz-adv-x="861" unicode="w" d="M482 530l118 -364l108 362h121l-173 -532h-108l-118 361l-119 -361h-108l-171 532h124l106 -362l117 364h103z"/>
<glyph glyph-name="x" horiz-adv-x="580" unicode="x" d="M355 271l195 -271h-132l-130 185l-129 -185h-129l194 268l-187 260h132l122 -174l122 174h129z"/>
<glyph glyph-name="y" horiz-adv-x="596" unicode="y" d="M568 528l-210 -543q-32 -81 -71 -114.5t-103 -33.5q-66 0 -125 32l41 90q37 -20 71 -20q26 0 43 13.5t32 47.5l-220 528h129l150 -392l137 392h126z"/>
<glyph glyph-name="z" horiz-adv-x="560" unicode="z" d="M357 429h-294v99h448v-83l-305 -346h305v-99h-459v83z"/>
<glyph glyph-name="braceleft" horiz-adv-x="487" unicode="{" d="M437 635q-86 -24 -111 -51.5t-25 -85.5q0 -10 1 -36.5t1 -37.5q0 -56 -26 -88t-78 -49q53 -17 78.5 -49t25.5 -88q0 -11 -1 -37.5t-1 -36.5q0 -58 25 -85.5t111 -51.5l-21 -80q-130 24 -178.5 71t-48.5 129q0 7 1 35t1 37q0 59 -25.5 84.5t-87.5 25.5h-26v92h26 q62 0 87.5 25.5t25.5 84.5q0 9 -1 37t-1 35q0 82 48.5 129t178.5 71z"/>
<glyph glyph-name="bar" horiz-adv-x="331" unicode="|" d="M214 -128h-97v926h97v-926z"/>
<glyph glyph-name="braceright" horiz-adv-x="487" unicode="}" d="M50 -61q86 24 111 51.5t25 85.5q0 10 -1 36.5t-1 37.5q0 56 26 88t78 49q-53 17 -78.5 49t-25.5 88q0 11 1 37.5t1 36.5q0 58 -25 85.5t-111 51.5l21 80q130 -24 178.5 -71t48.5 -129q0 -7 -1 -35t-1 -37q0 -59 25.5 -84.5t87.5 -25.5h26v-92h-26q-62 0 -87.5 -25.5 t-25.5 -84.5q0 -9 1 -37t1 -35q0 -82 -48.5 -129t-178.5 -71z"/>
<glyph glyph-name="asciitilde" horiz-adv-x="495" unicode="~" d="M436 364q-17 -64 -42.5 -94.5t-69.5 -30.5q-30 0 -79 20t-64 20q-21 0 -32.5 -11.5t-22.5 -38.5l-67 21q17 64 42.5 94t69.5 30q30 0 79 -20t64 -20q21 0 32.5 11.5t22.5 38.5z"/>
<glyph glyph-name="nbspace" horiz-adv-x="300" unicode=" "/>
<glyph glyph-name="exclamdown" horiz-adv-x="302" unicode="¡" d="M222 0h-142v35l38 444h67l37 -444v-35zM85 700h133v-137h-133v137z"/>
<glyph glyph-name="cent" horiz-adv-x="581" unicode="¢" d="M317 525h-2q-63 -3 -104 -51.5t-41 -117.5q0 -51 23 -91.5t62 -61.5zM538 181q-88 -100 -212 -101q-8 0 -12 1l-16 -87h-88l20 101q-79 29 -128.5 99.5t-49.5 159.5q0 115 78.5 195.5t194.5 80.5h9l15 76h88l-18 -89q63 -18 118 -78l-73 -78q-39 38 -70 49l-63 -323 q3 -1 10 -1q67 4 127 64z"/>
<glyph glyph-name="sterling" horiz-adv-x="644" unicode="£" d="M142 382v92q0 110 60.5 173t169.5 63q136 0 221 -112l-94 -75q-29 37 -57.5 55t-68.5 18q-50 0 -78.5 -33.5t-28.5 -91.5v-89h249v-104h-249v-171h325v-107h-528v78l79 24v176h-79v104h79z"/>
<glyph glyph-name="currency" horiz-adv-x="720" unicode="¤" d="M130 395h-78v85h94q31 105 105.5 168.5t178.5 63.5q85 0 142.5 -34.5t101.5 -97.5l-93 -69q-34 47 -69 69t-85 22q-53 0 -92.5 -32.5t-60.5 -89.5h214v-85h-234q-2 -28 -2 -44q0 -13 2 -41h234v-85h-216q21 -59 63 -93t100 -34q47 0 81 23t72 72l88 -64 q-47 -68 -104.5 -104.5t-137.5 -36.5q-109 0 -185.5 64.5t-105.5 172.5h-91v85h77q-1 13 -1 39q0 31 2 46z"/>
<glyph glyph-name="yen" horiz-adv-x="686" unicode="¥" d="M402 264v-73h193v-89h-193v-102h-118v102h-193v89h193v73h-193v89h159l-231 347h143l183 -293l183 293h139l-232 -347h160v-89h-193z"/>
<glyph glyph-name="section" horiz-adv-x="632" unicode="§" d="M465 333q0 23 -27 39t-90 32q-72 18 -104 18q-35 0 -56 -15.5t-21 -39.5q0 -23 27 -39t90 -32q71 -18 104 -18q35 0 56 15.5t21 39.5zM574 350q0 -88 -107 -117q55 -35 55 -96q0 -67 -52.5 -107t-143.5 -40q-141 0 -231 95l69 68q76 -71 161 -71q40 0 60.5 13.5 t20.5 36.5t-27 38t-105 33q-118 27 -167 59.5t-49 87.5q0 88 107 117q-55 35 -55 96q0 67 52.5 107t143.5 40q141 0 231 -95l-69 -68q-76 71 -161 71q-40 0 -60.5 -13.5t-20.5 -36.5t27 -38t105 -33q118 -27 167 -59.5t49 -87.5z"/>
<glyph glyph-name="dieresis" horiz-adv-x="500" unicode="¨" d="M212 595h-123v118h123v-118zM411 595h-123v118h123v-118z"/>
<glyph glyph-name="copyright" horiz-adv-x="830" unicode="©" d="M573 227q-65 -68 -154 -68q-82 0 -137 56.5t-55 138.5t55 139.5t139 57.5q88 0 149 -59l-47 -54q-50 45 -102 45q-51 0 -84.5 -37t-33.5 -91q0 -53 34 -90.5t84 -37.5q54 0 104 47zM739 351q0 136 -93 230.5t-230 94.5q-138 0 -231.5 -95.5t-93.5 -231.5t93 -230.5 t230 -94.5q138 0 231.5 95.5t93.5 231.5zM777 351q0 -149 -106 -256t-257 -107t-256 106t-105 255t106 256t257 107t256 -106t105 -255z"/>
<glyph glyph-name="ordfeminine" horiz-adv-x="390" unicode="ª" d="M252 514v18q-31 11 -63 11q-30 0 -47 -12t-17 -34q0 -20 14.5 -31.5t37.5 -11.5q32 0 53.5 17t21.5 43zM323 282h-270v58h270v-58zM319 409h-68v34q-35 -40 -92 -40q-44 0 -73.5 24t-29.5 67q0 46 32.5 70t87.5 24q36 0 76 -11v5q0 61 -70 61q-35 0 -83 -19l-19 54 q53 25 112 25q127 0 127 -122v-172z"/>
<glyph glyph-name="guillemotleft" horiz-adv-x="606" unicode="«" d="M210 488l92 -47l-132 -176l132 -177l-92 -47l-166 219v8zM461 488l92 -47l-132 -176l132 -177l-92 -47l-165 219v8z"/>
<glyph glyph-name="registered" horiz-adv-x="830" unicode="®" d="M510 425q0 60 -75 60h-94v-120h94q35 0 55 16t20 44zM584 429q0 -45 -23.5 -74t-64.5 -41l102 -143h-86l-92 131h-79v-131h-72v379h169q67 0 106.5 -32.5t39.5 -88.5zM739 351q0 136 -93 230.5t-230 94.5q-138 0 -231.5 -95.5t-93.5 -231.5t93 -230.5t230 -94.5 q138 0 231.5 95.5t93.5 231.5zM777 351q0 -149 -106 -256t-257 -107t-256 106t-105 255t106 256t257 107t256 -106t105 -255z"/>
<glyph glyph-name="macron" horiz-adv-x="500" unicode="¯" d="M421 600h-342v89h342v-89z"/>
<glyph glyph-name="degree" horiz-adv-x="471" unicode="°" d="M330 544q0 39 -27.5 67.5t-67.5 28.5t-67 -28.5t-27 -67.5q0 -40 27 -68.5t67 -28.5q41 0 68 28.5t27 68.5zM402 544q0 -66 -50.5 -114.5t-116.5 -48.5t-116 48.5t-50 114.5q0 65 50 113.5t116 48.5t116.5 -48.5t50.5 -113.5z"/>
<glyph glyph-name="plusminus" horiz-adv-x="610" unicode="±" d="M560 200q0 -93 -67 -152.5t-182 -59.5q-165 0 -272 122l85 79q80 -90 189 -90q58 0 91.5 27.5t33.5 74.5q0 48 -40.5 74t-113.5 26h-75v104h78q61 0 96.5 27.5t35.5 73.5q0 43 -32.5 69t-88.5 26q-84 0 -159 -88l-86 70q49 63 107 96t140 33q108 0 174.5 -53t66.5 -135 q0 -114 -104 -165q123 -47 123 -159z"/>
<glyph glyph-name="acute" horiz-adv-x="500" unicode="´" d="M254 595h-94l106 164l110 -49z"/>
<glyph glyph-name="mu" horiz-adv-x="850" unicode="µ" d="M662 349q0 104 -67.5 177t-170.5 73t-169.5 -72t-66.5 -176t67.5 -177t170.5 -73t169.5 72t66.5 176zM791 351q0 -79 -31.5 -149t-88.5 -121l175 -174v-8h-180l-116 111q-61 -22 -126 -22q-159 0 -262 105t-103 256t104 257t263 106t262 -105t103 -256z"/>
<glyph glyph-name="paragraph" horiz-adv-x="557" unicode="¶" d="M311 700h159v-700h-124v244h-18q-128 0 -208 59.5t-80 168.5q0 106 74.5 167t196.5 61z"/>
<glyph glyph-name="periodcentered" horiz-adv-x="269" unicode="·" d="M201 238h-133v137h133v-137z"/>
<glyph glyph-name="cedilla" horiz-adv-x="500" unicode="¸" d="M221 10h91l-75 -175l-106 44z"/>
<glyph glyph-name="ordmasculine" horiz-adv-x="390" unicode="º" d="M276 553q0 37 -23.5 63.5t-58.5 26.5q-36 0 -58 -25.5t-22 -63.5q0 -37 23.5 -63.5t58.5 -26.5q36 0 58 25.5t22 63.5zM339 282h-288v58h288v-58zM346 554q0 -64 -43.5 -108t-108.5 -44q-64 0 -107 44t-43 107q0 64 43.5 108t108.5 44q64 0 107 -44t43 -107z"/>
<glyph glyph-name="guillemotright" horiz-adv-x="606" unicode="»" d="M145 41l-92 46l132 176l-132 177l92 48l165 -220v-8zM396 41l-92 46l132 176l-132 177l92 48l166 -220v-8z"/>
<glyph glyph-name="questiondown" horiz-adv-x="541" unicode="¿" d="M349 312q-185 -7 -185 -113q0 -43 31 -69.5t84 -26.5q89 0 163 79l75 -80q-98 -111 -241 -111q-106 0 -170 55t-64 149q0 89 55 138t146 65l10 81h81l20 -162zM229 700h134v-137h-134v137z"/>
<glyph glyph-name="Agrave" horiz-adv-x="790" unicode="À" d="M351 758l-122 115l110 49l106 -164h-94zM514 278l-121 280l-120 -280h241zM452 705l308 -705h-130l-71 169h-331l-72 -169h-126l308 705h114z"/>
<glyph glyph-name="Aacute" horiz-adv-x="790" unicode="Á" d="M439 758h-94l106 164l110 -49zM514 278l-121 280l-120 -280h241zM452 705l308 -705h-130l-71 169h-331l-72 -169h-126l308 705h114z"/>
<glyph glyph-name="Acircumflex" horiz-adv-x="790" unicode="Â" d="M394 824l-77 -67h-94l116 146h112l116 -146h-96zM514 278l-121 280l-120 -280h241zM452 705l308 -705h-130l-71 169h-331l-72 -169h-126l308 705h114z"/>
<glyph glyph-name="Atilde" horiz-adv-x="790" unicode="Ã" d="M584 882q-17 -64 -42.5 -94t-69.5 -30q-30 0 -79 20t-65 20q-20 0 -31.5 -11t-23.5 -39l-67 20q17 64 42.5 94.5t69.5 30.5q30 0 79 -20t65 -20q20 0 31.5 11t23.5 39zM514 278l-121 280l-120 -280h241zM452 705l308 -705h-130l-71 169h-331l-72 -169h-126l308 705h114z "/>
<glyph glyph-name="Adieresis" horiz-adv-x="790" unicode="Ä" d="M357 758h-123v118h123v-118zM556 758h-123v118h123v-118zM514 278l-121 280l-120 -280h241zM452 705l308 -705h-130l-71 169h-331l-72 -169h-126l308 705h114z"/>
<glyph glyph-name="Aring" horiz-adv-x="790" unicode="Å" d="M514 278l-121 280l-120 -280h241zM457 772q0 26 -18.5 44t-43.5 18t-43.5 -18t-18.5 -44t18.5 -44t43.5 -18t43.5 18t18.5 44zM328 684q-47 35 -47 88q0 45 34.5 77.5t79.5 32.5t79.5 -32.5t34.5 -77.5q0 -53 -47 -88l298 -684h-130l-71 169h-331l-72 -169h-126z"/>
<glyph glyph-name="AE" horiz-adv-x="1045" unicode="Æ" d="M467 593l-176 -315h196v315h-20zM232 169l-93 -169h-127l391 700h581v-110h-374v-182h329v-110h-329v-188h379v-110h-502v169h-255z"/>
<glyph glyph-name="Ccedilla" horiz-adv-x="738" unicode="Ç" d="M345 -5q-126 23 -206 122t-80 232q0 152 102 257.5t259 105.5q91 0 154.5 -28t119.5 -81l-79 -91q-94 87 -196 87q-100 0 -165.5 -71.5t-65.5 -176.5t66 -177.5t165 -72.5q60 0 106 22.5t95 68.5l79 -80q-55 -58 -116.5 -88.5t-145.5 -34.5l-66 -154l-105 44z"/>
<glyph glyph-name="Egrave" d="M327 758l-122 115l110 49l106 -164h-94zM609 700v-110h-396v-182h351v-110h-351v-188h401v-110h-524v700h519z" unicode="È"/>
<glyph glyph-name="Eacute" d="M371 758h-94l106 164l110 -49zM609 700v-110h-396v-182h351v-110h-351v-188h401v-110h-524v700h519z" unicode="É"/>
<glyph glyph-name="Ecircumflex" d="M346 825l-77 -67h-94l116 146h112l116 -146h-96zM609 700v-110h-396v-182h351v-110h-351v-188h401v-110h-524v700h519z" unicode="Ê"/>
<glyph glyph-name="Edieresis" d="M309 758h-123v118h123v-118zM508 758h-123v118h123v-118zM609 700v-110h-396v-182h351v-110h-351v-188h401v-110h-524v700h519z" unicode="Ë"/>
<glyph glyph-name="Igrave" horiz-adv-x="317" unicode="Ì" d="M116 758l-122 115l110 49l106 -164h-94zM97 700h123v-700h-123v700z"/>
<glyph glyph-name="Iacute" horiz-adv-x="317" unicode="Í" d="M202 758h-94l106 164l110 -49zM97 700h123v-700h-123v700z"/>
<glyph glyph-name="Icircumflex" horiz-adv-x="317" unicode="Î" d="M158 825l-77 -67h-94l116 146h112l116 -146h-96zM97 700h123v-700h-123v700z"/>
<glyph glyph-name="Idieresis" horiz-adv-x="317" unicode="Ï" d="M121 758h-123v118h123v-118zM320 758h-123v118h123v-118zM97 700h123v-700h-123v700z"/>
<glyph glyph-name="Eth" horiz-adv-x="812" unicode="Ð" d="M242 407h176v-110h-176v-185h139q109 0 176 66.5t67 170.5q0 105 -67 172t-176 67h-139v-181zM120 297h-75v110h75v293h261q163 0 267.5 -99.5t104.5 -249.5t-104.5 -250.5t-267.5 -100.5h-261v297z"/>
<glyph glyph-name="Ntilde" horiz-adv-x="790" unicode="Ñ" d="M584 882q-17 -64 -42.5 -94t-69.5 -30q-30 0 -79 20t-65 20q-20 0 -31.5 -11t-23.5 -39l-67 20q17 64 42.5 94.5t69.5 30.5q30 0 79 -20t65 -20q20 0 31.5 11t23.5 39zM579 216v484h121v-700h-103l-386 498v-498h-121v700h114z"/>
<glyph glyph-name="Ograve" horiz-adv-x="850" unicode="Ò" d="M374 758l-122 115l110 49l106 -164h-94zM662 349q0 104 -67.5 177t-170.5 73t-169.5 -72t-66.5 -176t67.5 -177t170.5 -73t169.5 72t66.5 176zM791 351q0 -151 -104 -257t-263 -106t-262 105t-103 256t104 257t263 106t262 -105t103 -256z"/>
<glyph glyph-name="Oacute" horiz-adv-x="850" unicode="Ó" d="M476 758h-94l106 164l110 -49zM662 349q0 104 -67.5 177t-170.5 73t-169.5 -72t-66.5 -176t67.5 -177t170.5 -73t169.5 72t66.5 176zM791 351q0 -151 -104 -257t-263 -106t-262 105t-103 256t104 257t263 106t262 -105t103 -256z"/>
<glyph glyph-name="Ocircumflex" horiz-adv-x="850" unicode="Ô" d="M424 825l-77 -67h-94l116 146h112l116 -146h-96zM662 349q0 104 -67.5 177t-170.5 73t-169.5 -72t-66.5 -176t67.5 -177t170.5 -73t169.5 72t66.5 176zM791 351q0 -151 -104 -257t-263 -106t-262 105t-103 256t104 257t263 106t262 -105t103 -256z"/>
<glyph glyph-name="Otilde" horiz-adv-x="850" unicode="Õ" d="M614 882q-17 -64 -42.5 -94t-69.5 -30q-30 0 -79 20t-65 20q-20 0 -31.5 -11t-23.5 -39l-67 20q17 64 42.5 94.5t69.5 30.5q30 0 79 -20t65 -20q20 0 31.5 11t23.5 39zM662 349q0 104 -67.5 177t-170.5 73t-169.5 -72t-66.5 -176t67.5 -177t170.5 -73t169.5 72t66.5 176z M791 351q0 -151 -104 -257t-263 -106t-262 105t-103 256t104 257t263 106t262 -105t103 -256z"/>
<glyph glyph-name="Odieresis" horiz-adv-x="850" unicode="Ö" d="M387 758h-123v118h123v-118zM586 758h-123v118h123v-118zM662 349q0 104 -67.5 177t-170.5 73t-169.5 -72t-66.5 -176t67.5 -177t170.5 -73t169.5 72t66.5 176zM791 351q0 -151 -104 -257t-263 -106t-262 105t-103 256t104 257t263 106t262 -105t103 -256z"/>
<glyph glyph-name="Oslash" horiz-adv-x="850" unicode="Ø" d="M665 349q0 83 -47 150l-320 -361q57 -39 128 -39q103 0 171 73t68 177zM552 562q-57 39 -128 39q-103 0 -171 -73t-68 -177q0 -83 47 -150zM791 351q0 -151 -104 -257t-263 -106q-114 0 -204 60l-48 -53h-121l99 112q-91 99 -91 242q0 151 104 257t263 106q114 0 204 -60 l48 53h121l-99 -112q91 -99 91 -242z"/>
<glyph glyph-name="Ugrave" horiz-adv-x="757" unicode="Ù" d="M341 753l-122 115l110 49l106 -164h-94zM678 700v-397q0 -153 -80 -233.5t-221 -80.5q-139 0 -218.5 79t-79.5 229v403h123v-398q0 -96 47 -148t130 -52t129.5 50t46.5 145v403h123z"/>
<glyph glyph-name="Uacute" horiz-adv-x="757" unicode="Ú" d="M416 753h-94l106 164l110 -49zM678 700v-397q0 -153 -80 -233.5t-221 -80.5q-139 0 -218.5 79t-79.5 229v403h123v-398q0 -96 47 -148t130 -52t129.5 50t46.5 145v403h123z"/>
<glyph glyph-name="Ucircumflex" horiz-adv-x="757" unicode="Û" d="M378 824l-77 -67h-94l116 146h112l116 -146h-96zM678 700v-397q0 -153 -80 -233.5t-221 -80.5q-139 0 -218.5 79t-79.5 229v403h123v-398q0 -96 47 -148t130 -52t129.5 50t46.5 145v403h123z"/>
<glyph glyph-name="Udieresis" horiz-adv-x="757" unicode="Ü" d="M341 757h-123v118h123v-118zM540 757h-123v118h123v-118zM678 700v-397q0 -153 -80 -233.5t-221 -80.5q-139 0 -218.5 79t-79.5 229v403h123v-398q0 -96 47 -148t130 -52t129.5 50t46.5 145v403h123z"/>
<glyph glyph-name="Yacute" horiz-adv-x="716" unicode="Ý" d="M405 753h-94l106 164l110 -49zM420 279v-279h-124v276l-278 424h145l196 -310l198 310h141z"/>
<glyph glyph-name="Thorn" horiz-adv-x="673" unicode="Þ" d="M507 353q0 61 -40.5 93.5t-110.5 32.5h-143v-253h143q69 0 110 35t41 92zM632 356q0 -115 -79.5 -177.5t-200.5 -62.5h-139v-116h-123v700h123v-110h153q122 0 194 -63.5t72 -170.5z"/>
<glyph glyph-name="germandbls" horiz-adv-x="620" unicode="ß" d="M529 548q0 -111 -110 -172q152 -52 152 -179q0 -94 -69.5 -146.5t-189.5 -52.5h-16v93q74 2 114 30t40 79q0 48 -41.5 77t-112.5 38v82q113 55 113 140q0 44 -27.5 70.5t-73.5 26.5q-50 0 -81 -35t-31 -93v-506h-120v502q0 109 64 172t174 63q99 0 157 -53.5t58 -135.5z "/>
<glyph glyph-name="agrave" horiz-adv-x="587" unicode="à" d="M257 595l-122 115l110 49l106 -164h-94zM402 191v33q-54 21 -121 21q-57 0 -89 -22.5t-32 -62.5v-2q0 -36 29 -57t73 -21q61 0 100.5 31t39.5 80zM519 0h-120v65q-64 -76 -171 -76q-79 0 -133.5 43.5t-54.5 119.5v2q0 83 59 126.5t155 43.5q77 0 146 -22v13 q0 55 -33.5 84t-96.5 29q-72 0 -151 -33l-33 97q98 44 201 44q115 0 173.5 -58t58.5 -165v-313z"/>
<glyph glyph-name="aacute" horiz-adv-x="587" unicode="á" d="M329 595h-94l106 164l110 -49zM402 191v33q-54 21 -121 21q-57 0 -89 -22.5t-32 -62.5v-2q0 -36 29 -57t73 -21q61 0 100.5 31t39.5 80zM519 0h-120v65q-64 -76 -171 -76q-79 0 -133.5 43.5t-54.5 119.5v2q0 83 59 126.5t155 43.5q77 0 146 -22v13q0 55 -33.5 84 t-96.5 29q-72 0 -151 -33l-33 97q98 44 201 44q115 0 173.5 -58t58.5 -165v-313z"/>
<glyph glyph-name="acircumflex" horiz-adv-x="587" unicode="â" d="M292 662l-77 -67h-94l116 146h112l116 -146h-96zM402 191v33q-54 21 -121 21q-57 0 -89 -22.5t-32 -62.5v-2q0 -36 29 -57t73 -21q61 0 100.5 31t39.5 80zM519 0h-120v65q-64 -76 -171 -76q-79 0 -133.5 43.5t-54.5 119.5v2q0 83 59 126.5t155 43.5q77 0 146 -22v13 q0 55 -33.5 84t-96.5 29q-72 0 -151 -33l-33 97q98 44 201 44q115 0 173.5 -58t58.5 -165v-313z"/>
<glyph glyph-name="atilde" horiz-adv-x="587" unicode="ã" d="M483 719q-17 -64 -42.5 -94t-69.5 -30q-30 0 -79 20t-65 20q-21 0 -32 -11t-23 -39l-67 20q17 64 42.5 94.5t69.5 30.5q30 0 79 -20t65 -20q21 0 32 11t23 39zM402 191v33q-54 21 -121 21q-57 0 -89 -22.5t-32 -62.5v-2q0 -36 29 -57t73 -21q61 0 100.5 31t39.5 80z M519 0h-120v65q-64 -76 -171 -76q-79 0 -133.5 43.5t-54.5 119.5v2q0 83 59 126.5t155 43.5q77 0 146 -22v13q0 55 -33.5 84t-96.5 29q-72 0 -151 -33l-33 97q98 44 201 44q115 0 173.5 -58t58.5 -165v-313z"/>
<glyph glyph-name="adieresis" horiz-adv-x="587" unicode="ä" d="M255 595h-123v118h123v-118zM454 595h-123v118h123v-118zM402 191v33q-54 21 -121 21q-57 0 -89 -22.5t-32 -62.5v-2q0 -36 29 -57t73 -21q61 0 100.5 31t39.5 80zM519 0h-120v65q-64 -76 -171 -76q-79 0 -133.5 43.5t-54.5 119.5v2q0 83 59 126.5t155 43.5q77 0 146 -22 v13q0 55 -33.5 84t-96.5 29q-72 0 -151 -33l-33 97q98 44 201 44q115 0 173.5 -58t58.5 -165v-313z"/>
<glyph glyph-name="aring" horiz-adv-x="587" unicode="å" d="M355 703q0 25 -18.5 43.5t-43.5 18.5t-43.5 -18.5t-18.5 -43.5t18.5 -43.5t43.5 -18.5t43.5 18.5t18.5 43.5zM407 703q0 -45 -34.5 -77.5t-79.5 -32.5t-79.5 32.5t-34.5 77.5t34.5 77.5t79.5 32.5t79.5 -32.5t34.5 -77.5zM402 191v33q-54 21 -121 21q-57 0 -89 -22.5 t-32 -62.5v-2q0 -36 29 -57t73 -21q61 0 100.5 31t39.5 80zM519 0h-120v65q-64 -76 -171 -76q-79 0 -133.5 43.5t-54.5 119.5v2q0 83 59 126.5t155 43.5q77 0 146 -22v13q0 55 -33.5 84t-96.5 29q-72 0 -151 -33l-33 97q98 44 201 44q115 0 173.5 -58t58.5 -165v-313z"/>
<glyph glyph-name="ae" horiz-adv-x="952" unicode="æ" d="M397 227q-51 18 -116 18q-57 0 -89 -22.5t-32 -62.5q0 -38 29 -59t73 -21q84 0 155 66q-16 40 -20 81zM514 301h272q-6 61 -41 100t-93 39q-55 0 -92.5 -38.5t-45.5 -100.5zM461 78q-107 -89 -221 -89q-91 0 -145.5 43.5t-54.5 122.5q0 82 59 125.5t155 43.5 q77 0 146 -22v13q0 55 -33.5 84t-96.5 29q-72 0 -151 -33l-33 97q98 44 198 44q136 0 186 -87q69 90 185 90q119 0 184.5 -81.5t65.5 -203.5q0 -21 -1 -33h-388q10 -63 51 -98.5t100 -35.5q79 0 144 63l71 -63q-84 -99 -217 -99q-127 0 -204 90z"/>
<glyph glyph-name="ccedilla" horiz-adv-x="571" unicode="ç" d="M250 -3q-90 23 -146.5 96t-56.5 169q0 115 78.5 196t195.5 81q128 0 211 -91l-75 -81q-63 66 -137 66q-65 0 -108.5 -49t-43.5 -120q0 -72 44.5 -121.5t113.5 -49.5q73 0 137 66l73 -72q-41 -45 -86.5 -70t-108.5 -28l-65 -154l-106 44z"/>
<glyph glyph-name="egrave" horiz-adv-x="604" unicode="è" d="M261 595l-122 115l110 49l106 -164h-94zM167 301h271q-6 61 -41 100t-93 39q-55 0 -92 -38.5t-45 -100.5zM168 221q10 -63 51 -98.5t101 -35.5q78 0 143 63l71 -63q-82 -99 -216 -99q-116 0 -193.5 77t-77.5 198q0 116 73 196t185 80q121 0 187 -81.5t66 -203.5 q0 -9 -2 -33h-388z"/>
<glyph glyph-name="eacute" horiz-adv-x="604" unicode="é" d="M343 595h-94l106 164l110 -49zM167 301h271q-6 61 -41 100t-93 39q-55 0 -92 -38.5t-45 -100.5zM168 221q10 -63 51 -98.5t101 -35.5q78 0 143 63l71 -63q-82 -99 -216 -99q-116 0 -193.5 77t-77.5 198q0 116 73 196t185 80q121 0 187 -81.5t66 -203.5q0 -9 -2 -33h-388z "/>
<glyph glyph-name="ecircumflex" horiz-adv-x="604" unicode="ê" d="M302 662l-77 -67h-94l116 146h112l116 -146h-96zM167 301h271q-6 61 -41 100t-93 39q-55 0 -92 -38.5t-45 -100.5zM168 221q10 -63 51 -98.5t101 -35.5q78 0 143 63l71 -63q-82 -99 -216 -99q-116 0 -193.5 77t-77.5 198q0 116 73 196t185 80q121 0 187 -81.5t66 -203.5 q0 -9 -2 -33h-388z"/>
<glyph glyph-name="edieresis" horiz-adv-x="604" unicode="ë" d="M265 595h-123v118h123v-118zM464 595h-123v118h123v-118zM167 301h271q-6 61 -41 100t-93 39q-55 0 -92 -38.5t-45 -100.5zM168 221q10 -63 51 -98.5t101 -35.5q78 0 143 63l71 -63q-82 -99 -216 -99q-116 0 -193.5 77t-77.5 198q0 116 73 196t185 80q121 0 187 -81.5 t66 -203.5q0 -9 -2 -33h-388z"/>
<glyph glyph-name="igrave" horiz-adv-x="286" unicode="ì" d="M101 595l-122 115l110 49l106 -164h-94zM204 0h-121v528h121v-528z"/>
<glyph glyph-name="iacute" horiz-adv-x="286" unicode="í" d="M185 595h-94l106 164l110 -49zM204 0h-121v528h121v-528z"/>
<glyph glyph-name="icircumflex" horiz-adv-x="286" unicode="î" d="M142 662l-77 -67h-94l116 146h112l116 -146h-96zM204 0h-121v528h121v-528z"/>
<glyph glyph-name="idieresis" horiz-adv-x="286" unicode="ï" d="M105 595h-123v118h123v-118zM304 595h-123v118h123v-118zM204 0h-121v528h121v-528z"/>
<glyph glyph-name="eth" horiz-adv-x="642" unicode="ð" d="M474 246q0 64 -44 107.5t-113 43.5q-68 0 -109.5 -42.5t-41.5 -108.5q0 -64 44 -109.5t111 -45.5q68 0 110.5 45t42.5 110zM313 588l-119 -53l-48 63l121 53l-58 79h139l24 -35l99 43l47 -63l-102 -44l89 -129q46 -66 67 -122t21 -122q0 -113 -75.5 -191.5t-201.5 -78.5 q-115 0 -192 76t-77 185q0 105 66.5 171t165.5 66q71 0 139 -41z"/>
<glyph glyph-name="ntilde" horiz-adv-x="620" unicode="ñ" d="M503 719q-17 -64 -42.5 -94t-69.5 -30q-30 0 -79 20t-65 20q-21 0 -32 -11t-23 -39l-67 20q17 64 42.5 94.5t69.5 30.5q30 0 79 -20t65 -20q21 0 32 11t23 39zM197 298v-298h-121v528h121v-82q63 93 165 93q88 0 138 -55t50 -148v-336h-121v300q0 62 -29.5 95.5 t-83.5 33.5q-53 0 -86 -35t-33 -96z"/>
<glyph glyph-name="ograve" horiz-adv-x="657" unicode="ò" d="M281 595l-122 115l110 49l106 -164h-94zM489 262q0 72 -46 121.5t-116 49.5q-71 0 -115 -48.5t-44 -120.5t45.5 -121.5t115.5 -49.5q72 0 116 48.5t44 120.5zM610 264q0 -115 -81 -195.5t-202 -80.5q-120 0 -200 80t-80 194q0 115 81 196t201 81t200.5 -80t80.5 -195z "/>
<glyph glyph-name="oacute" horiz-adv-x="657" unicode="ó" d="M375 595h-94l106 164l110 -49zM489 262q0 72 -46 121.5t-116 49.5q-71 0 -115 -48.5t-44 -120.5t45.5 -121.5t115.5 -49.5q72 0 116 48.5t44 120.5zM610 264q0 -115 -81 -195.5t-202 -80.5q-120 0 -200 80t-80 194q0 115 81 196t201 81t200.5 -80t80.5 -195z"/>
<glyph glyph-name="ocircumflex" horiz-adv-x="657" unicode="ô" d="M327 662l-77 -67h-94l116 146h112l116 -146h-96zM489 262q0 72 -46 121.5t-116 49.5q-71 0 -115 -48.5t-44 -120.5t45.5 -121.5t115.5 -49.5q72 0 116 48.5t44 120.5zM610 264q0 -115 -81 -195.5t-202 -80.5q-120 0 -200 80t-80 194q0 115 81 196t201 81t200.5 -80 t80.5 -195z"/>
<glyph glyph-name="otilde" horiz-adv-x="657" unicode="õ" d="M517 719q-17 -64 -42.5 -94t-69.5 -30q-30 0 -79 20t-65 20q-21 0 -32 -11t-23 -39l-67 20q17 64 42.5 94.5t69.5 30.5q30 0 79 -20t65 -20q21 0 32 11t23 39zM489 262q0 72 -46 121.5t-116 49.5q-71 0 -115 -48.5t-44 -120.5t45.5 -121.5t115.5 -49.5q72 0 116 48.5 t44 120.5zM610 264q0 -115 -81 -195.5t-202 -80.5q-120 0 -200 80t-80 194q0 115 81 196t201 81t200.5 -80t80.5 -195z"/>
<glyph glyph-name="odieresis" horiz-adv-x="657" unicode="ö" d="M290 595h-123v118h123v-118zM489 595h-123v118h123v-118zM489 262q0 72 -46 121.5t-116 49.5q-71 0 -115 -48.5t-44 -120.5t45.5 -121.5t115.5 -49.5q72 0 116 48.5t44 120.5zM610 264q0 -115 -81 -195.5t-202 -80.5q-120 0 -200 80t-80 194q0 115 81 196t201 81 t200.5 -80t80.5 -195z"/>
<glyph glyph-name="oslash" horiz-adv-x="657" unicode="ø" d="M492 262q0 52 -25 93l-218 -241q37 -24 80 -24q72 0 117.5 49.5t45.5 122.5zM409 412q-35 24 -82 24q-72 0 -117 -49.5t-45 -122.5q0 -51 25 -92zM610 264q0 -115 -81 -195.5t-202 -80.5q-83 0 -151 43l-34 -36h-110l80 89q-65 76 -65 178q0 115 81 196t201 81 q84 0 151 -43l35 38h110l-81 -91q66 -75 66 -179z"/>
<glyph glyph-name="ugrave" horiz-adv-x="620" unicode="ù" d="M275 593l-122 115l110 49l106 -164h-94zM423 230v298h121v-528h-121v82q-63 -93 -165 -93q-88 0 -138 55t-50 148v336h121v-300q0 -62 29.5 -95.5t83.5 -33.5q53 0 86 35t33 96z"/>
<glyph glyph-name="uacute" horiz-adv-x="620" unicode="ú" d="M343 593h-94l106 164l110 -49zM423 230v298h121v-528h-121v82q-63 -93 -165 -93q-88 0 -138 55t-50 148v336h121v-300q0 -62 29.5 -95.5t83.5 -33.5q53 0 86 35t33 96z"/>
<glyph glyph-name="ucircumflex" horiz-adv-x="620" unicode="û" d="M309 662l-77 -67h-94l116 146h112l116 -146h-96zM423 230v298h121v-528h-121v82q-63 -93 -165 -93q-88 0 -138 55t-50 148v336h121v-300q0 -62 29.5 -95.5t83.5 -33.5q53 0 86 35t33 96z"/>
<glyph glyph-name="udieresis" horiz-adv-x="620" unicode="ü" d="M272 595h-123v118h123v-118zM471 595h-123v118h123v-118zM423 230v298h121v-528h-121v82q-63 -93 -165 -93q-88 0 -138 55t-50 148v336h121v-300q0 -62 29.5 -95.5t83.5 -33.5q53 0 86 35t33 96z"/>
<glyph glyph-name="yacute" horiz-adv-x="596" unicode="ý" d="M338 593h-94l106 164l110 -49zM568 528l-210 -543q-32 -81 -71 -114.5t-103 -33.5q-66 0 -125 32l41 90q37 -20 71 -20q26 0 43 13.5t32 47.5l-220 528h129l150 -392l137 392h126z"/>
<glyph glyph-name="thorn" d="M499 264q0 76 -44 123t-107 47q-64 0 -109 -47.5t-45 -122.5t45 -122.5t109 -47.5t107.5 46.5t43.5 123.5zM622 264q0 -126 -73 -200.5t-173 -74.5q-109 0 -179 93v-242h-121v890h121v-290q70 99 179 99q100 0 173 -74.5t73 -200.5z" unicode="þ"/>
<glyph glyph-name="OE" horiz-adv-x="1098" unicode="Œ" d="M540 112v476h-109q-109 0 -176 -66.5t-67 -170.5q0 -105 67 -172t176 -67h109zM1042 0h-611q-163 0 -267.5 99.5t-104.5 249.5t104.5 250.5t267.5 100.5h606v-110h-374v-182h329v-110h-329v-188h379v-110z"/>
<glyph glyph-name="oe" horiz-adv-x="1040" unicode="œ" d="M482 262q0 71 -45 121t-113 50q-70 0 -113 -48.5t-43 -120.5q0 -71 45 -121t113 -50q70 0 113 48.5t43 120.5zM602 301h272q-7 62 -41.5 100.5t-92.5 38.5q-55 0 -92.5 -38.5t-45.5 -100.5zM539 102q-35 -52 -92.5 -83t-125.5 -31q-114 0 -194 80.5t-80 193.5 q0 115 81 196t198 81q67 0 123.5 -30.5t91.5 -82.5q32 52 85 82.5t117 30.5q118 0 184 -82t66 -203q0 -9 -2 -33h-388q10 -63 51.5 -98.5t100.5 -35.5q79 0 144 63l71 -63q-84 -99 -216 -99q-69 0 -125.5 30t-89.5 84z"/>
<glyph glyph-name="Scaron" horiz-adv-x="640" unicode="Š" d="M321 838l77 66h94l-116 -146h-112l-116 146h96zM194 517q0 -42 33.5 -64.5t132.5 -46.5q116 -28 170.5 -75t54.5 -131q0 -97 -69 -153.5t-181 -56.5q-167 0 -292 112l74 88q105 -91 221 -91q57 0 90.5 24t33.5 65q0 40 -32 63t-126 45q-122 30 -177.5 74t-55.5 136 q0 91 67 147.5t172 56.5q144 0 254 -88l-66 -93q-97 72 -190 72q-53 0 -83.5 -24t-30.5 -60z"/>
<glyph glyph-name="scaron" horiz-adv-x="500" unicode="š" d="M255 675l77 66h94l-116 -146h-112l-116 146h96zM453 156q0 -80 -55 -123t-141 -43q-124 0 -224 79l54 82q86 -65 173 -65q39 0 60.5 15.5t21.5 41.5v2q0 38 -106 70q-8 3 -12 4q-36 10 -60 20t-51 27.5t-40.5 44.5t-13.5 63v2q0 73 53.5 117t134.5 44q103 0 194 -60 l-48 -86q-82 50 -149 50q-35 0 -54.5 -14.5t-19.5 -38.5v-2q0 -24 26.5 -38.5t82.5 -32.5q7 -2 10 -3q35 -11 59 -21.5t50.5 -28.5t40.5 -44t14 -60v-2z"/>
<glyph glyph-name="Ydieresis" horiz-adv-x="716" unicode="Ÿ" d="M320 757h-123v118h123v-118zM519 757h-123v118h123v-118zM420 279v-279h-124v276l-278 424h145l196 -310l198 310h141z"/>
<glyph glyph-name="circumflex" horiz-adv-x="500" unicode="ˆ" d="M249 662l-77 -67h-94l116 146h112l116 -146h-96z"/>
<glyph glyph-name="tilde" horiz-adv-x="500" unicode="˜" d="M439 719q-17 -64 -42.5 -94t-69.5 -30q-30 0 -79 20t-65 20q-21 0 -32 -11t-23 -39l-67 20q17 64 42.5 94.5t69.5 30.5q30 0 79 -20t65 -20q21 0 32 11t23 39z"/>
<glyph glyph-name="pi" horiz-adv-x="830" unicode="π" d="M511 417q0 31 -20.5 47.5t-57.5 16.5h-73v-129h73q36 0 57 18t21 47zM586 418q0 -63 -44 -97t-111 -34h-71v-120h-74v380h153q68 0 107.5 -35t39.5 -94zM739 351q0 136 -93 230.5t-230 94.5q-138 0 -231.5 -95.5t-93.5 -231.5t93 -230.5t230 -94.5q138 0 231.5 95.5 t93.5 231.5zM777 351q0 -149 -106 -256t-257 -107t-256 106t-105 255t106 256t257 107t256 -106t105 -255z"/>
<glyph glyph-name="endash" horiz-adv-x="528" unicode="–" d="M472 249h-416v115h416v-115z"/>
<glyph glyph-name="emdash" horiz-adv-x="898" unicode="—" d="M842 249h-786v115h786v-115z"/>
<glyph glyph-name="quoteleft" horiz-adv-x="269" unicode="‘" d="M230 653q-86 -15 -86 -82q0 -2 0.5 -5.5t0.5 -5.5h51v-138h-133v117q0 81 38 120.5t116 45.5z"/>
<glyph glyph-name="quotesinglbase" horiz-adv-x="269" unicode="‚" d="M34 -94q86 17 86 83q0 2 -0.5 5.5t-0.5 5.5h-51v137h133v-116q0 -81 -38 -120.5t-116 -45.5z"/>
<glyph glyph-name="quotedblleft" horiz-adv-x="501" unicode="“" d="M230 653q-86 -15 -86 -82q0 -2 0.5 -5.5t0.5 -5.5h51v-138h-133v117q0 81 38 120.5t116 45.5zM462 653q-86 -15 -86 -84v-9h52v-138h-133v117q0 81 38 120.5t116 45.5z"/>
<glyph glyph-name="quotedblright" horiz-adv-x="501" unicode="”" d="M39 469q86 15 86 83q0 2 -0.5 5.5t-0.5 5.5h-51v137h133v-117q0 -81 -38 -120.5t-116 -45.5zM271 469q86 15 86 83q0 2 -0.5 5.5t-0.5 5.5h-51v137h133v-117q0 -81 -38 -120.5t-116 -45.5z"/>
<glyph glyph-name="dagger" horiz-adv-x="410" unicode="†" d="M232 513l9 -275h-72l9 275l-122 -9v71l121 -9l-12 134h80l-12 -134l121 9v-71z"/>
<glyph glyph-name="daggerdbl" horiz-adv-x="430" unicode="‡" d="M364 125l-121 9l12 -134h-80l12 134l-121 -9v71l121 -9l-8 163l8 163l-121 -9v71l121 -9l-12 134h80l-12 -134l121 9v-71l-121 9l8 -163l-8 -163l121 9v-71z"/>
<glyph glyph-name="ellipsis" horiz-adv-x="792" unicode="…" d="M198 0h-130v134h130v-134zM461 0h-130v134h130v-134zM724 0h-130v134h130v-134z"/>
<glyph glyph-name="perthousand" horiz-adv-x="1228" unicode="‰" d="M712 170q0 44 -22 73.5t-55 29.5q-34 0 -54.5 -29t-20.5 -72q0 -44 22 -73.5t55 -29.5q34 0 54.5 29t20.5 72zM1091 170q0 44 -22 73.5t-55 29.5q-34 0 -54.5 -29t-20.5 -72q0 -44 22 -73.5t55 -29.5q34 0 54.5 29t20.5 72zM289 528q0 44 -22 73.5t-55 29.5 q-34 0 -54.5 -29t-20.5 -72q0 -44 22 -73.5t55 -29.5q34 0 54.5 29t20.5 72zM801 172q0 -75 -46.5 -127.5t-119.5 -52.5q-72 0 -118 52t-46 126q0 75 46.5 127.5t119.5 52.5q72 0 118 -52t46 -126zM1180 172q0 -75 -46.5 -127.5t-119.5 -52.5t-118.5 51.5t-45.5 126.5 t46.5 127.5t119.5 52.5q72 0 118 -52t46 -126zM631 700h99l-512 -700h-99zM378 530q0 -75 -46.5 -127.5t-119.5 -52.5q-72 0 -118 52t-46 126q0 75 46.5 127.5t119.5 52.5q72 0 118 -52t46 -126z"/>
<glyph glyph-name="guilsinglleft" horiz-adv-x="354" unicode="‹" d="M210 488l92 -47l-132 -176l132 -177l-92 -47l-166 219v8z"/>
<glyph glyph-name="guilsinglright" horiz-adv-x="354" unicode="›" d="M145 41l-92 46l132 176l-132 177l92 48l165 -220v-8z"/>
<glyph glyph-name="fraction" horiz-adv-x="459" unicode="⁄" d="M397 758h110l-467 -856h-110z"/>
<glyph glyph-name="trademark" horiz-adv-x="690" unicode="™" d="M180 646v-254h-59v254h-95v54h249v-54h-95zM594 611l-95 -148h-6l-95 148v-219h-57v308h63l93 -146l93 146h61v-308h-57v219z"/>
<glyph glyph-name="radical" horiz-adv-x="1038" unicode="√" d="M956 0h-122v730h122v-730zM222 524h140v-100h-138v-424h-121v424h-67v101h67v38q0 173 162 173q51 0 98 -14v-102q-39 13 -71 13q-70 0 -70 -80v-29zM598 524h140v-100h-138v-424h-121v424h-67v101h67v38q0 86 41.5 129.5t119.5 43.5q52 0 99 -14v-102q-39 13 -71 13 q-70 0 -70 -80v-29z"/>
<glyph glyph-name="approxequal" horiz-adv-x="1038" unicode="≈" d="M956 0h-122v528h122v-528zM222 524h140v-100h-138v-424h-121v424h-67v101h67v38q0 173 162 173q51 0 98 -14v-102q-39 13 -71 13q-70 0 -70 -80v-29zM598 524h140v-100h-138v-424h-121v424h-67v101h67v38q0 86 41.5 129.5t119.5 43.5q52 0 99 -14v-102q-39 13 -71 13 q-70 0 -70 -80v-29zM960 609h-130v115h130v-115z"/>
</font>
</defs>
</svg>
